{
  "asset": {
    "generator": "Khronos glTF Blender I/O v1.5.17",
    "version": "2.0"
  },
  "scene": 0,
  "scenes": [
    {
      "name": "Scene",
      "nodes": [0, 1, 2]
    }
  ],
  "nodes": [
    {
      "name": "Light",
      "rotation": [
        0.16907575726509094,
        0.7558803558349609,
        -0.27217137813568115,
        0.570947527885437
      ],
      "translation": [2.476245403289795, 2.8038620948791504, 4.154545783996582]
    },
    {
      "name": "Camera",
      "rotation": [
        0.7193222641944885,
        0.0048497626557946205,
        -0.005021912977099419,
        0.6946414709091187
      ],
      "translation": [
        -0.1517183929681778,
        0.12737920880317688,
        22.45480728149414
      ]
    },
    {
      "mesh": 0,
      "name": "Text",
      "rotation": [0.7071068286895752, 0, 0, 0.7071068286895752],
      "scale": [1, 2.4000000953674316, 1.4600000381469727],
      "translation": [0, 2.2274701595306396, 0]
    }
  ],
  "materials": [
    {
      "doubleSided": true,
      "name": "Material.001",
      "pbrMetallicRoughness": {
        "baseColorFactor": [
          0.7013976573944092,
          0.8000000715255737,
          0.7253406047821045,
          1
        ],
        "metallicFactor": 0,
        "roughnessFactor": 0.5
      }
    }
  ],
  "meshes": [
    {
      "name": "DEE-DOT-DOLLA",
      "primitives": [
        {
          "attributes": {
            "POSITION": 0,
            "NORMAL": 1,
            "TEXCOORD_0": 2
          },
          "indices": 3,
          "material": 0
        }
      ]
    }
  ],
  "accessors": [
    {
      "bufferView": 0,
      "componentType": 5126,
      "count": 15665,
      "max": [3.958059549331665, 0.1799999326467514, 0.049075014889240265],
      "min": [-3.860499620437622, -0.1799999326467514, -0.7310730814933777],
      "type": "VEC3"
    },
    {
      "bufferView": 1,
      "componentType": 5126,
      "count": 15665,
      "type": "VEC3"
    },
    {
      "bufferView": 2,
      "componentType": 5126,
      "count": 15665,
      "type": "VEC2"
    },
    {
      "bufferView": 3,
      "componentType": 5123,
      "count": 79980,
      "type": "SCALAR"
    }
  ],
  "bufferViews": [
    {
      "buffer": 0,
      "byteLength": 187980,
      "byteOffset": 0
    },
    {
      "buffer": 0,
      "byteLength": 187980,
      "byteOffset": 187980
    },
    {
      "buffer": 0,
      "byteLength": 125320,
      "byteOffset": 375960
    },
    {
      "buffer": 0,
      "byteLength": 159960,
      "byteOffset": 501280
    }
  ],
  "buffers": [
    {
      "byteLength": 661240,
      "uri": "data:application/octet-stream;base64,"
    }
  ]
}
